<mxfile host="65bd71144e">
    <diagram id="cPuyTPp_bhm4BGq1EIii" name="Page-1">
        <mxGraphModel dx="3161" dy="1762" grid="1" gridSize="10" guides="1" tooltips="1" connect="1" arrows="1" fold="1" page="1" pageScale="1" pageWidth="850" pageHeight="1100" math="0" shadow="0">
            <root>
                <mxCell id="0"/>
                <mxCell id="1" parent="0"/>
                <mxCell id="55" value="LEVERANCIER" style="swimlane;whiteSpace=wrap;html=1;" vertex="1" parent="1">
                    <mxGeometry x="-680" y="80" width="200" height="130" as="geometry"/>
                </mxCell>
                <mxCell id="58" value="&lt;ul&gt;&lt;li&gt;id&lt;/li&gt;&lt;li&gt;naam&lt;/li&gt;&lt;li&gt;adres_id&lt;/li&gt;&lt;li&gt;postbus_id&lt;br&gt;&lt;/li&gt;&lt;/ul&gt;&lt;div style=&quot;width: 12px; z-index: 1; touch-action: none; top: 69px; left: 212px; bottom: 37px;&quot; class=&quot;geHsplit&quot;&gt;&lt;/div&gt;" style="text;html=1;align=left;verticalAlign=middle;resizable=0;points=[];autosize=1;strokeColor=none;fillColor=none;" vertex="1" parent="55">
                    <mxGeometry x="-10" y="10" width="120" height="120" as="geometry"/>
                </mxCell>
                <mxCell id="59" value="RUBRIEK" style="swimlane;whiteSpace=wrap;html=1;" vertex="1" parent="1">
                    <mxGeometry x="-350" y="80" width="200" height="130" as="geometry"/>
                </mxCell>
                <mxCell id="60" value="&lt;ul&gt;&lt;li style=&quot;text-align: left;&quot;&gt;id&lt;/li&gt;&lt;li style=&quot;text-align: left;&quot;&gt;leverancier_id&lt;/li&gt;&lt;li style=&quot;text-align: left;&quot;&gt;type (H/S)&lt;/li&gt;&lt;li style=&quot;text-align: left;&quot;&gt;hoofdrubriek_id (optioneel)&lt;/li&gt;&lt;/ul&gt;&lt;div style=&quot;width: 12px; z-index: 1; touch-action: none; top: 69px; left: 212px; bottom: 37px;&quot; class=&quot;geHsplit&quot;&gt;&lt;/div&gt;" style="text;html=1;align=center;verticalAlign=middle;resizable=0;points=[];autosize=1;strokeColor=none;fillColor=none;" vertex="1" parent="59">
                    <mxGeometry x="-25" y="10" width="210" height="120" as="geometry"/>
                </mxCell>
                <mxCell id="61" value="CONTACTPERSOON" style="swimlane;whiteSpace=wrap;html=1;" vertex="1" parent="1">
                    <mxGeometry x="-1050" y="80" width="200" height="110" as="geometry"/>
                </mxCell>
                <mxCell id="62" value="&lt;ul&gt;&lt;li&gt;id&lt;/li&gt;&lt;li&gt;leverancier_id&lt;/li&gt;&lt;li&gt;naam&lt;/li&gt;&lt;/ul&gt;&lt;div style=&quot;width: 12px; z-index: 1; touch-action: none; top: 69px; left: 212px; bottom: 37px;&quot; class=&quot;geHsplit&quot;&gt;&lt;/div&gt;" style="text;html=1;align=left;verticalAlign=middle;resizable=0;points=[];autosize=1;strokeColor=none;fillColor=none;" vertex="1" parent="61">
                    <mxGeometry x="-15" y="10" width="140" height="100" as="geometry"/>
                </mxCell>
                <mxCell id="63" value="CONTACTGEGEVENS" style="swimlane;whiteSpace=wrap;html=1;" vertex="1" parent="1">
                    <mxGeometry x="-870" y="-240" width="200" height="230" as="geometry"/>
                </mxCell>
                <mxCell id="64" value="&lt;ul&gt;&lt;li&gt;id&lt;/li&gt;&lt;li&gt;type (L/C)&lt;/li&gt;&lt;li&gt;if type == L&lt;/li&gt;&lt;ul&gt;&lt;li&gt;leverancier_id&lt;br&gt;&lt;/li&gt;&lt;/ul&gt;&lt;li&gt;if type == C&lt;/li&gt;&lt;ul&gt;&lt;li&gt;contactpersoon_id&lt;/li&gt;&lt;/ul&gt;&lt;li&gt;email&lt;/li&gt;&lt;li&gt;mobiel nummer&lt;/li&gt;&lt;li&gt;vast nummer&lt;/li&gt;&lt;/ul&gt;&lt;div style=&quot;width: 12px; z-index: 1; touch-action: none; top: 69px; left: 212px; bottom: 37px;&quot; class=&quot;geHsplit&quot;&gt;&lt;/div&gt;" style="text;html=1;align=left;verticalAlign=middle;resizable=0;points=[];autosize=1;strokeColor=none;fillColor=none;" vertex="1" parent="63">
                    <mxGeometry x="-10" y="10" width="200" height="220" as="geometry"/>
                </mxCell>
                <mxCell id="67" value="POSTBUS" style="swimlane;whiteSpace=wrap;html=1;" vertex="1" parent="1">
                    <mxGeometry x="-800" y="280" width="200" height="100" as="geometry"/>
                </mxCell>
                <mxCell id="68" value="&lt;ul&gt;&lt;li&gt;id&lt;/li&gt;&lt;li&gt;postbusnummer&lt;/li&gt;&lt;li&gt;postcode_id&lt;/li&gt;&lt;/ul&gt;&lt;div style=&quot;width: 12px; z-index: 1; touch-action: none; top: 69px; left: 212px; bottom: 37px;&quot; class=&quot;geHsplit&quot;&gt;&lt;/div&gt;" style="text;html=1;align=left;verticalAlign=middle;resizable=0;points=[];autosize=1;strokeColor=none;fillColor=none;" vertex="1" parent="67">
                    <mxGeometry x="-10" y="10" width="150" height="100" as="geometry"/>
                </mxCell>
                <mxCell id="69" value="ADRES" style="swimlane;whiteSpace=wrap;html=1;" vertex="1" parent="1">
                    <mxGeometry x="-560" y="280" width="200" height="100" as="geometry"/>
                </mxCell>
                <mxCell id="70" value="&lt;ul&gt;&lt;li&gt;id&lt;/li&gt;&lt;li&gt;&lt;span style=&quot;background-color: initial;&quot;&gt;huisnummer&lt;/span&gt;&lt;/li&gt;&lt;li&gt;&lt;span style=&quot;background-color: initial;&quot;&gt;postcode_id&lt;/span&gt;&lt;/li&gt;&lt;/ul&gt;&lt;div style=&quot;width: 12px; z-index: 1; touch-action: none; top: 69px; left: 212px; bottom: 37px;&quot; class=&quot;geHsplit&quot;&gt;&lt;/div&gt;" style="text;html=1;align=left;verticalAlign=middle;resizable=0;points=[];autosize=1;strokeColor=none;fillColor=none;" vertex="1" parent="69">
                    <mxGeometry x="-10" y="10" width="130" height="100" as="geometry"/>
                </mxCell>
                <mxCell id="71" value="GEMEENTE" style="swimlane;whiteSpace=wrap;html=1;" vertex="1" parent="1">
                    <mxGeometry x="-680" y="810" width="200" height="100" as="geometry"/>
                </mxCell>
                <mxCell id="72" value="&lt;ul&gt;&lt;li&gt;id&lt;/li&gt;&lt;li&gt;provincie_id&lt;/li&gt;&lt;li&gt;gemeente&lt;/li&gt;&lt;/ul&gt;" style="text;html=1;align=left;verticalAlign=middle;resizable=0;points=[];autosize=1;strokeColor=none;fillColor=none;" vertex="1" parent="71">
                    <mxGeometry x="-15" y="10" width="130" height="100" as="geometry"/>
                </mxCell>
                <mxCell id="100" value="" style="edgeStyle=orthogonalEdgeStyle;fontSize=12;html=1;endArrow=ERmany;entryX=0.5;entryY=1;entryDx=0;entryDy=0;" edge="1" parent="71">
                    <mxGeometry width="100" height="100" relative="1" as="geometry">
                        <mxPoint x="100" y="150" as="sourcePoint"/>
                        <mxPoint x="100" y="100" as="targetPoint"/>
                    </mxGeometry>
                </mxCell>
                <mxCell id="73" value="PROVINCIE" style="swimlane;whiteSpace=wrap;html=1;" vertex="1" parent="1">
                    <mxGeometry x="-680" y="960" width="200" height="100" as="geometry"/>
                </mxCell>
                <mxCell id="74" value="&lt;ul&gt;&lt;li&gt;id&lt;/li&gt;&lt;li&gt;land_id&lt;/li&gt;&lt;li&gt;provincie&lt;/li&gt;&lt;/ul&gt;" style="text;html=1;align=left;verticalAlign=middle;resizable=0;points=[];autosize=1;strokeColor=none;fillColor=none;" vertex="1" parent="73">
                    <mxGeometry x="-15" y="10" width="110" height="100" as="geometry"/>
                </mxCell>
                <mxCell id="75" value="LAND" style="swimlane;whiteSpace=wrap;html=1;" vertex="1" parent="1">
                    <mxGeometry x="-680" y="1110" width="200" height="80" as="geometry"/>
                </mxCell>
                <mxCell id="76" value="&lt;ul&gt;&lt;li&gt;id&lt;/li&gt;&lt;li&gt;land&lt;/li&gt;&lt;/ul&gt;" style="text;html=1;align=left;verticalAlign=middle;resizable=0;points=[];autosize=1;strokeColor=none;fillColor=none;" vertex="1" parent="75">
                    <mxGeometry x="-15" y="10" width="90" height="80" as="geometry"/>
                </mxCell>
                <mxCell id="78" value="TAAK" style="swimlane;whiteSpace=wrap;html=1;" vertex="1" parent="1">
                    <mxGeometry x="-1050" y="230" width="200" height="120" as="geometry"/>
                </mxCell>
                <mxCell id="79" value="&lt;ul&gt;&lt;li&gt;id&lt;/li&gt;&lt;li&gt;contactpersoon_id&lt;/li&gt;&lt;li&gt;afdeling&lt;/li&gt;&lt;li&gt;naam&lt;/li&gt;&lt;/ul&gt;" style="text;html=1;align=left;verticalAlign=middle;resizable=0;points=[];autosize=1;strokeColor=none;fillColor=none;" vertex="1" parent="78">
                    <mxGeometry x="-15" y="10" width="160" height="120" as="geometry"/>
                </mxCell>
                <mxCell id="80" value="POSTCODE" style="swimlane;whiteSpace=wrap;html=1;" vertex="1" parent="1">
                    <mxGeometry x="-680" y="460" width="200" height="150" as="geometry"/>
                </mxCell>
                <mxCell id="81" value="&lt;ul&gt;&lt;li&gt;id&lt;/li&gt;&lt;li&gt;latitude&lt;/li&gt;&lt;li&gt;longitude&lt;/li&gt;&lt;li&gt;woonplaats_id&lt;/li&gt;&lt;li&gt;straatnaam&lt;/li&gt;&lt;/ul&gt;&lt;div style=&quot;width: 12px; z-index: 1; touch-action: none; top: 69px; left: 212px; bottom: 37px;&quot; class=&quot;geHsplit&quot;&gt;&lt;/div&gt;" style="text;html=1;align=left;verticalAlign=middle;resizable=0;points=[];autosize=1;strokeColor=none;fillColor=none;" vertex="1" parent="80">
                    <mxGeometry x="-16" y="10" width="140" height="140" as="geometry"/>
                </mxCell>
                <mxCell id="82" value="WOONPLAATS" style="swimlane;whiteSpace=wrap;html=1;" vertex="1" parent="1">
                    <mxGeometry x="-680" y="660" width="200" height="100" as="geometry"/>
                </mxCell>
                <mxCell id="83" value="&lt;ul&gt;&lt;li&gt;id&lt;/li&gt;&lt;li&gt;woonplaats&lt;/li&gt;&lt;li&gt;gemeente_id&lt;/li&gt;&lt;/ul&gt;" style="text;html=1;align=left;verticalAlign=middle;resizable=0;points=[];autosize=1;strokeColor=none;fillColor=none;" vertex="1" parent="82">
                    <mxGeometry x="-15" y="10" width="130" height="100" as="geometry"/>
                </mxCell>
                <mxCell id="88" value="" style="edgeStyle=orthogonalEdgeStyle;fontSize=12;html=1;endArrow=ERmany;entryX=0;entryY=0.5;entryDx=0;entryDy=0;exitX=1;exitY=0.5;exitDx=0;exitDy=0;" edge="1" parent="1" source="55" target="59">
                    <mxGeometry width="100" height="100" relative="1" as="geometry">
                        <mxPoint x="-450" y="535" as="sourcePoint"/>
                        <mxPoint x="-390" y="270" as="targetPoint"/>
                    </mxGeometry>
                </mxCell>
                <mxCell id="90" value="" style="edgeStyle=orthogonalEdgeStyle;fontSize=12;html=1;endArrow=ERmany;exitX=1;exitY=0.5;exitDx=0;exitDy=0;" edge="1" parent="1">
                    <mxGeometry width="100" height="100" relative="1" as="geometry">
                        <mxPoint x="-150" y="144.57" as="sourcePoint"/>
                        <mxPoint x="-260" y="78" as="targetPoint"/>
                        <Array as="points">
                            <mxPoint x="-110" y="145"/>
                            <mxPoint x="-110" y="40"/>
                            <mxPoint x="-260" y="40"/>
                            <mxPoint x="-260" y="78"/>
                        </Array>
                    </mxGeometry>
                </mxCell>
                <mxCell id="91" value="" style="edgeStyle=orthogonalEdgeStyle;fontSize=12;html=1;endArrow=ERmany;exitX=0.5;exitY=0;exitDx=0;exitDy=0;" edge="1" parent="1" source="67" target="58">
                    <mxGeometry width="100" height="100" relative="1" as="geometry">
                        <mxPoint x="-470" y="155" as="sourcePoint"/>
                        <mxPoint x="-340" y="155" as="targetPoint"/>
                    </mxGeometry>
                </mxCell>
                <mxCell id="93" value="" style="edgeStyle=orthogonalEdgeStyle;fontSize=12;html=1;endArrow=ERmany;exitX=0.5;exitY=0;exitDx=0;exitDy=0;entryX=0.75;entryY=1;entryDx=0;entryDy=0;" edge="1" parent="1" source="69" target="55">
                    <mxGeometry width="100" height="100" relative="1" as="geometry">
                        <mxPoint x="-710" y="290" as="sourcePoint"/>
                        <mxPoint x="-620" y="220" as="targetPoint"/>
                    </mxGeometry>
                </mxCell>
                <mxCell id="94" value="" style="edgeStyle=orthogonalEdgeStyle;fontSize=12;html=1;endArrow=ERmany;exitX=0.25;exitY=0;exitDx=0;exitDy=0;entryX=0.5;entryY=1;entryDx=0;entryDy=0;" edge="1" parent="1" source="80" target="67">
                    <mxGeometry width="100" height="100" relative="1" as="geometry">
                        <mxPoint x="-690" y="290" as="sourcePoint"/>
                        <mxPoint x="-660" y="400" as="targetPoint"/>
                    </mxGeometry>
                </mxCell>
                <mxCell id="95" value="" style="edgeStyle=orthogonalEdgeStyle;fontSize=12;html=1;endArrow=ERmany;exitX=0.75;exitY=0;exitDx=0;exitDy=0;entryX=0.5;entryY=1;entryDx=0;entryDy=0;" edge="1" parent="1" source="80" target="69">
                    <mxGeometry width="100" height="100" relative="1" as="geometry">
                        <mxPoint x="-620" y="470.0000000000001" as="sourcePoint"/>
                        <mxPoint x="-690" y="390" as="targetPoint"/>
                    </mxGeometry>
                </mxCell>
                <mxCell id="97" value="" style="edgeStyle=orthogonalEdgeStyle;fontSize=12;html=1;endArrow=ERmany;exitX=0.5;exitY=0;exitDx=0;exitDy=0;entryX=0.5;entryY=1;entryDx=0;entryDy=0;" edge="1" parent="1" source="82" target="80">
                    <mxGeometry width="100" height="100" relative="1" as="geometry">
                        <mxPoint x="-550" y="690.0000000000001" as="sourcePoint"/>
                        <mxPoint x="-500" y="650" as="targetPoint"/>
                    </mxGeometry>
                </mxCell>
                <mxCell id="99" value="" style="edgeStyle=orthogonalEdgeStyle;fontSize=12;html=1;endArrow=ERmany;entryX=0.5;entryY=1;entryDx=0;entryDy=0;" edge="1" parent="1">
                    <mxGeometry width="100" height="100" relative="1" as="geometry">
                        <mxPoint x="-580" y="810" as="sourcePoint"/>
                        <mxPoint x="-580" y="760" as="targetPoint"/>
                    </mxGeometry>
                </mxCell>
                <mxCell id="101" value="" style="edgeStyle=orthogonalEdgeStyle;fontSize=12;html=1;endArrow=ERmany;entryX=0.5;entryY=1;entryDx=0;entryDy=0;" edge="1" parent="1">
                    <mxGeometry width="100" height="100" relative="1" as="geometry">
                        <mxPoint x="-580.43" y="1110" as="sourcePoint"/>
                        <mxPoint x="-580.43" y="1060" as="targetPoint"/>
                    </mxGeometry>
                </mxCell>
                <mxCell id="103" value="" style="edgeStyle=orthogonalEdgeStyle;fontSize=12;html=1;endArrow=ERmany;exitX=0.5;exitY=0;exitDx=0;exitDy=0;entryX=0.75;entryY=1;entryDx=0;entryDy=0;" edge="1" parent="1" source="55" target="63">
                    <mxGeometry width="100" height="100" relative="1" as="geometry">
                        <mxPoint x="-600" y="20" as="sourcePoint"/>
                        <mxPoint x="-540" y="-100" as="targetPoint"/>
                    </mxGeometry>
                </mxCell>
                <mxCell id="104" value="" style="edgeStyle=orthogonalEdgeStyle;fontSize=12;html=1;endArrow=ERmany;exitX=0.5;exitY=0;exitDx=0;exitDy=0;entryX=0.25;entryY=1;entryDx=0;entryDy=0;" edge="1" parent="1" source="61" target="63">
                    <mxGeometry width="100" height="100" relative="1" as="geometry">
                        <mxPoint x="-570" y="90" as="sourcePoint"/>
                        <mxPoint x="-710" as="targetPoint"/>
                    </mxGeometry>
                </mxCell>
                <mxCell id="105" value="" style="edgeStyle=orthogonalEdgeStyle;fontSize=12;html=1;endArrow=ERmany;entryX=0.5;entryY=0;entryDx=0;entryDy=0;exitX=0.5;exitY=1;exitDx=0;exitDy=0;" edge="1" parent="1" source="61" target="78">
                    <mxGeometry width="100" height="100" relative="1" as="geometry">
                        <mxPoint x="-910" y="190" as="sourcePoint"/>
                        <mxPoint x="-810" as="targetPoint"/>
                    </mxGeometry>
                </mxCell>
                <mxCell id="106" value="" style="edgeStyle=orthogonalEdgeStyle;fontSize=12;html=1;endArrow=ERmany;entryX=1;entryY=0.5;entryDx=0;entryDy=0;" edge="1" parent="1" target="61">
                    <mxGeometry width="100" height="100" relative="1" as="geometry">
                        <mxPoint x="-680" y="135" as="sourcePoint"/>
                        <mxPoint x="-340" y="155" as="targetPoint"/>
                    </mxGeometry>
                </mxCell>
            </root>
        </mxGraphModel>
    </diagram>
</mxfile>